# xmcd CD database file
#
# Track frame offsets:
#	150
#	25209
#	56243
#	86795
#	113015
#	144760
#	161911
#	186805
#	210022
#
# Disc length: 3131 seconds
#
# Revision: 1
# Processed by: cddbd v1.5.2PL0 Copyright (c) Steve Scherf et al.
# Submitted via: CDex 1.51
#
DISCID=720c3909
DTITLE=D¿em - Autsajder
DYEAR=1993
DGENRE=Blues
TTITLE0=A Jednak Czegos Zal
TTITLE1=Autsajder
TTITLE2=Cala W Trawie
TTITLE3=Noc I Rytm
TTITLE4=Obluda
TTITLE5=Piosenka Ekologiczna
TTITLE6=Plyn Moj Bluesie Plyn
TTITLE7=Prokurator I Ja
TTITLE8=Wieczny Pechowiec
EXTD=YEAR: 1993
EXTT0=
EXTT1=
EXTT2=
EXTT3=
EXTT4=
EXTT5=
EXTT6=
EXTT7=
EXTT8=
PLAYORDER=
